<svg xmlns:xlink="http://www.w3.org/1999/xlink" width="18.334ex" height="3.343ex" style="font-size: 15px; vertical-align: -0.338ex;" viewBox="0 -1293.7 7894 1439.2" role="img" focusable="false" xmlns="http://www.w3.org/2000/svg">
<defs>
<path stroke-width="1" id="E1-MJMAINB-43" d="M64 343Q64 502 174 599T468 697Q502 697 533 691T586 674T623 655T647 639T657 632L694 663Q703 670 711 677T723 687T730 692T735 695T740 696T746 697Q759 697 762 692T766 668V627V489V449Q766 428 762 424T742 419H732H720Q699 419 697 436Q690 498 657 545Q611 618 532 632Q522 634 496 634Q356 634 286 553Q232 488 232 343T286 133Q355 52 497 52Q597 52 650 112T704 237Q704 248 709 251T729 254H735Q750 254 755 253T763 248T766 234Q766 136 680 63T469 -11Q285 -11 175 86T64 343Z"></path>
<path stroke-width="1" id="E1-MJMAINB-6F" d="M287 -5Q228 -5 182 10T109 48T63 102T39 161T32 219Q32 272 50 314T94 382T154 423T214 446T265 452H279Q319 452 326 451Q428 439 485 376T542 221Q542 156 514 108T442 33Q384 -5 287 -5ZM399 230V250Q399 280 398 298T391 338T372 372T338 392T282 401Q241 401 212 380Q190 363 183 334T175 230Q175 202 175 189T177 153T183 118T195 91T215 68T245 56T287 50Q348 50 374 84Q388 101 393 132T399 230Z"></path>
<path stroke-width="1" id="E1-MJMAINB-6E" d="M40 442Q217 450 218 450H224V407L225 365Q233 378 245 391T289 422T362 448Q374 450 398 450Q428 450 448 447T491 434T529 402T551 346Q553 335 554 198V62H623V0H614Q596 3 489 3Q374 3 365 0H356V62H425V194V275Q425 348 416 373T371 399Q326 399 288 370T238 290Q236 281 235 171V62H304V0H295Q277 3 171 3Q64 3 46 0H37V62H106V210V303Q106 353 104 363T91 376Q77 380 50 380H37V442H40Z"></path>
<path stroke-width="1" id="E1-MJMAINB-74" d="M272 49Q320 49 320 136V145V177H382V143Q382 106 380 99Q374 62 349 36T285 -2L272 -5H247Q173 -5 134 27Q109 46 102 74T94 160Q94 171 94 199T95 245V382H21V433H25Q58 433 90 456Q121 479 140 523T162 621V635H224V444H363V382H224V239V207V149Q224 98 228 81T249 55Q261 49 272 49Z"></path>
<path stroke-width="1" id="E1-MJMAINB-65" d="M32 225Q32 332 102 392T272 452H283Q382 452 436 401Q494 343 494 243Q494 226 486 222T440 217Q431 217 394 217T327 218H175V209Q175 177 179 154T196 107T236 69T306 50Q312 49 323 49Q376 49 410 85Q421 99 427 111T434 127T442 133T463 135H468Q494 135 494 117Q494 110 489 97T468 66T431 32T373 5T292 -6Q181 -6 107 55T32 225ZM383 276Q377 346 348 374T280 402Q253 402 230 390T195 357Q179 331 176 279V266H383V276Z"></path>
<path stroke-width="1" id="E1-MJMAINB-73" d="M38 315Q38 339 45 360T70 404T127 440T223 453Q273 453 320 436L338 445L357 453H366Q380 453 383 447T386 403V387V355Q386 331 383 326T365 321H355H349Q333 321 329 324T324 341Q317 406 224 406H216Q123 406 123 353Q123 334 143 321T188 304T244 294T285 286Q305 281 325 273T373 237T412 172Q414 162 414 142Q414 -6 230 -6Q154 -6 117 22L68 -6H58Q44 -6 41 0T38 42V73Q38 85 38 101T37 122Q37 144 42 148T68 153H75Q87 153 91 151T97 147T103 132Q131 46 220 46H230Q257 46 265 47Q330 58 330 108Q330 127 316 142Q300 156 284 162Q271 168 212 178T122 202Q38 243 38 315Z"></path>
</defs>
<g stroke="currentColor" fill="currentColor" stroke-width="0" transform="matrix(1 0 0 -1 0 0)">
 <use transform="scale(1.73)" xlink:href="#E1-MJMAINB-43" x="0" y="0"></use>
 <use transform="scale(1.73)" xlink:href="#E1-MJMAINB-6F" x="831" y="0"></use>
 <use transform="scale(1.73)" xlink:href="#E1-MJMAINB-6E" x="1406" y="0"></use>
 <use transform="scale(1.73)" xlink:href="#E1-MJMAINB-74" x="2046" y="0"></use>
 <use transform="scale(1.73)" xlink:href="#E1-MJMAINB-65" x="2494" y="0"></use>
 <use transform="scale(1.73)" xlink:href="#E1-MJMAINB-6E" x="3021" y="0"></use>
 <use transform="scale(1.73)" xlink:href="#E1-MJMAINB-74" x="3661" y="0"></use>
 <use transform="scale(1.73)" xlink:href="#E1-MJMAINB-73" x="4108" y="0"></use>
</g>
</svg>